<?xml version="1.0" encoding="utf-8"?>
<!-- Generator: Adobe Illustrator 25.0.1, SVG Export Plug-In . SVG Version: 6.00 Build 0)  -->
<svg xmlns="http://www.w3.org/2000/svg" viewBox="0 0 288 277"><title>
        shapes
    </title><defs><linearGradient x1="13.716%" y1="74.417%" x2="84.798%" y2="24.863%" id="a"><stop stop-color="#A081D9" offset="0%"></stop><stop stop-color="#6C98F5" offset="13.395%"></stop><stop stop-color="#5EE7F9" offset="33.558%"></stop><stop stop-color="#D1E3CC" offset="59.411%"></stop><stop stop-color="#BB8BA6" offset="100%"></stop></linearGradient><linearGradient x1="13.716%" y1="84.037%" x2="84.798%" y2="14.96%" id="b"><stop stop-color="#A081D9" offset="0%"></stop><stop stop-color="#6C98F5" offset="13.395%"></stop><stop stop-color="#5EE7F9" offset="33.558%"></stop><stop stop-color="#D1E3CC" offset="59.411%"></stop><stop stop-color="#BB8BA6" offset="100%"></stop></linearGradient><linearGradient x1="13.716%" y1="80.787%" x2="84.798%" y2="18.306%" id="c"><stop stop-color="#A081D9" offset="0%"></stop><stop stop-color="#6C98F5" offset="13.395%"></stop><stop stop-color="#5EE7F9" offset="33.558%"></stop><stop stop-color="#D1E3CC" offset="59.411%"></stop><stop stop-color="#BB8BA6" offset="100%"></stop></linearGradient></defs><g fill-rule="nonzero" fill="none"><path d="M288.006 261.934L144.003 18 0 261.934h288.006zM144.003 25.868L281 257.934H7.005L144.003 25.868z" fill="url(#a)" class="triangle"></path><path d="M288.006 261.934L144.003 18 0 261.934h288.006zM144.003 25.868L281 257.934H7.005L144.003 25.868z" fill="url(#b)" class="circle" data-original="M144.5 4C69.113 4 8 65.113 8 140.5S69.113 277 144.5 277 281 215.887 281 140.5 219.887 4 144.5 4zm0 4C217.678 8 277 67.322 277 140.5S217.678 273 144.5 273 12 213.678 12 140.5 71.322 8 144.5 8z"></path><path d="M264 26H24v240h240V26zm-4 4v232H28V30h232z" fill="url(#b)" class="square"></path><path d="M286.313 103.283L144.156 0 2 103.283l54.299 167.115h175.715l54.299-167.115zM144.156 4.944L281.61 104.81l-52.503 161.587H59.204L6.701 104.81 144.156 4.944z" fill="url(#c)" class="hexagon"></path></g></svg>
</svg>
